HIERARCHY
ROOT mixamorig:Hips
{
	OFFSET 0.000000 103.991501 0.000000
	CHANNELS 6 Xposition Yposition Zposition Xrotation Yrotation Zrotation
	JOINT mixamorig:Spine
	{
		OFFSET 0.000000 10.181602 0.131500
		CHANNELS 6 Xposition Yposition Zposition Xrotation Yrotation Zrotation
		JOINT mixamorig:Spine1
		{
			OFFSET 0.000000 10.083504 -1.000800
			CHANNELS 6 Xposition Yposition Zposition Xrotation Yrotation Zrotation
			JOINT mixamorig:Spine2
			{
				OFFSET 0.000000 9.100006 -1.373400
				CHANNELS 6 Xposition Yposition Zposition Xrotation Yrotation Zrotation
				JOINT mixamorig:Neck
				{
					OFFSET 0.000000 16.671707 -2.516200
					CHANNELS 6 Xposition Yposition Zposition Xrotation Yrotation Zrotation
					JOINT mixamorig:Head
					{
						OFFSET 0.000000 9.617905 1.685000
						CHANNELS 6 Xposition Yposition Zposition Xrotation Yrotation Zrotation
						JOINT mixamorig:HeadTop_End
						{
							OFFSET 0.000000 17.815201 2.585000
							CHANNELS 6 Xposition Yposition Zposition Xrotation Yrotation Zrotation
							End Site
							{
								OFFSET 0.000000 13.794495 0.000000
							}
						}
						JOINT mixamorig:LeftEye
						{
							OFFSET 3.067600 6.409500 9.283600
							CHANNELS 6 Xposition Yposition Zposition Xrotation Yrotation Zrotation
							End Site
							{
								OFFSET 0.000000 13.794495 0.000000
							}
						}
						JOINT mixamorig:RightEye
						{
							OFFSET -3.067600 6.409500 9.283500
							CHANNELS 6 Xposition Yposition Zposition Xrotation Yrotation Zrotation
							End Site
							{
								OFFSET 0.000000 13.794495 0.000000
							}
						}
					}
				}
				JOINT mixamorig:LeftShoulder
				{
					OFFSET 4.570400 10.945999 -2.628000
					CHANNELS 6 Xposition Yposition Zposition Xrotation Yrotation Zrotation
					JOINT mixamorig:LeftArm
					{
						OFFSET 10.592400 -0.524597 -2.232100
						CHANNELS 6 Xposition Yposition Zposition Xrotation Yrotation Zrotation
						JOINT mixamorig:LeftForeArm
						{
							OFFSET 27.841499 0.000000 0.000000
							CHANNELS 6 Xposition Yposition Zposition Xrotation Yrotation Zrotation
							JOINT mixamorig:LeftHand
							{
								OFFSET 28.328800 0.000000 0.000000
								CHANNELS 6 Xposition Yposition Zposition Xrotation Yrotation Zrotation
								JOINT mixamorig:LeftHandThumb1
								{
									OFFSET 2.466103 -1.576218 2.681689
									CHANNELS 6 Xposition Yposition Zposition Xrotation Yrotation Zrotation
									JOINT mixamorig:LeftHandThumb2
									{
										OFFSET 3.229782 -1.864716 1.864716
										CHANNELS 6 Xposition Yposition Zposition Xrotation Yrotation Zrotation
										JOINT mixamorig:LeftHandThumb3
										{
											OFFSET 2.652611 -1.531494 1.531488
											CHANNELS 6 Xposition Yposition Zposition Xrotation Yrotation Zrotation
											JOINT mixamorig:LeftHandThumb4
											{
												OFFSET 1.954605 -1.128494 1.128493
												CHANNELS 6 Xposition Yposition Zposition Xrotation Yrotation Zrotation
												End Site
												{
													OFFSET -0.000404 2.523392 0.000683
												}
											}
										}
									}
								}
								JOINT mixamorig:LeftHandIndex1
								{
									OFFSET 9.109299 -0.518112 2.259867
									CHANNELS 6 Xposition Yposition Zposition Xrotation Yrotation Zrotation
									JOINT mixamorig:LeftHandIndex2
									{
										OFFSET 3.676399 0.000000 0.000000
										CHANNELS 6 Xposition Yposition Zposition Xrotation Yrotation Zrotation
										JOINT mixamorig:LeftHandIndex3
										{
											OFFSET 2.883102 0.000000 0.000000
											CHANNELS 6 Xposition Yposition Zposition Xrotation Yrotation Zrotation
											JOINT mixamorig:LeftHandIndex4
											{
												OFFSET 2.392700 0.000000 0.000000
												CHANNELS 6 Xposition Yposition Zposition Xrotation Yrotation Zrotation
												End Site
												{
													OFFSET 0.000000 2.392700 0.001080
												}
											}
										}
									}
								}
								JOINT mixamorig:LeftHandMiddle1
								{
									OFFSET 9.533401 0.000000 0.000000
									CHANNELS 6 Xposition Yposition Zposition Xrotation Yrotation Zrotation
									JOINT mixamorig:LeftHandMiddle2
									{
										OFFSET 3.698196 0.000000 0.000000
										CHANNELS 6 Xposition Yposition Zposition Xrotation Yrotation Zrotation
										JOINT mixamorig:LeftHandMiddle3
										{
											OFFSET 2.950897 0.000000 0.000000
											CHANNELS 6 Xposition Yposition Zposition Xrotation Yrotation Zrotation
											JOINT mixamorig:LeftHandMiddle4
											{
												OFFSET 2.833900 0.000000 0.000000
												CHANNELS 6 Xposition Yposition Zposition Xrotation Yrotation Zrotation
												End Site
												{
													OFFSET 0.000000 2.833893 0.001278
												}
											}
										}
									}
								}
								JOINT mixamorig:LeftHandRing1
								{
									OFFSET 9.104500 -0.043060 -1.865119
									CHANNELS 6 Xposition Yposition Zposition Xrotation Yrotation Zrotation
									JOINT mixamorig:LeftHandRing2
									{
										OFFSET 3.153999 0.000000 0.000000
										CHANNELS 6 Xposition Yposition Zposition Xrotation Yrotation Zrotation
										JOINT mixamorig:LeftHandRing3
										{
											OFFSET 2.937698 0.000000 0.000000
											CHANNELS 6 Xposition Yposition Zposition Xrotation Yrotation Zrotation
											JOINT mixamorig:LeftHandRing4
											{
												OFFSET 2.647499 0.000000 0.000000
												CHANNELS 6 Xposition Yposition Zposition Xrotation Yrotation Zrotation
												End Site
												{
													OFFSET 0.000000 2.647507 0.001195
												}
											}
										}
									}
								}
								JOINT mixamorig:LeftHandPinky1
								{
									OFFSET 8.077797 -0.486984 -3.806321
									CHANNELS 6 Xposition Yposition Zposition Xrotation Yrotation Zrotation
									JOINT mixamorig:LeftHandPinky2
									{
										OFFSET 3.599998 0.000000 0.000000
										CHANNELS 6 Xposition Yposition Zposition Xrotation Yrotation Zrotation
										JOINT mixamorig:LeftHandPinky3
										{
											OFFSET 2.114197 0.000000 0.000000
											CHANNELS 6 Xposition Yposition Zposition Xrotation Yrotation Zrotation
											JOINT mixamorig:LeftHandPinky4
											{
												OFFSET 1.975700 0.000000 0.000000
												CHANNELS 6 Xposition Yposition Zposition Xrotation Yrotation Zrotation
												End Site
												{
													OFFSET 0.000000 1.975693 0.000892
												}
											}
										}
									}
								}
							}
						}
					}
				}
				JOINT mixamorig:RightShoulder
				{
					OFFSET -4.570000 10.946198 -2.628000
					CHANNELS 6 Xposition Yposition Zposition Xrotation Yrotation Zrotation
					JOINT mixamorig:RightArm
					{
						OFFSET -10.592800 -0.524796 -2.232100
						CHANNELS 6 Xposition Yposition Zposition Xrotation Yrotation Zrotation
						JOINT mixamorig:RightForeArm
						{
							OFFSET -27.841499 0.000000 0.000000
							CHANNELS 6 Xposition Yposition Zposition Xrotation Yrotation Zrotation
							JOINT mixamorig:RightHand
							{
								OFFSET -28.328800 0.000000 0.000000
								CHANNELS 6 Xposition Yposition Zposition Xrotation Yrotation Zrotation
								JOINT mixamorig:RightHandPinky1
								{
									OFFSET -8.076698 -0.486725 -3.806227
									CHANNELS 6 Xposition Yposition Zposition Xrotation Yrotation Zrotation
									JOINT mixamorig:RightHandPinky2
									{
										OFFSET -3.599998 0.000000 0.000000
										CHANNELS 6 Xposition Yposition Zposition Xrotation Yrotation Zrotation
										JOINT mixamorig:RightHandPinky3
										{
											OFFSET -2.114197 0.000000 0.000000
											CHANNELS 6 Xposition Yposition Zposition Xrotation Yrotation Zrotation
											JOINT mixamorig:RightHandPinky4
											{
												OFFSET -1.975700 0.000000 0.000000
												CHANNELS 6 Xposition Yposition Zposition Xrotation Yrotation Zrotation
												End Site
												{
													OFFSET 0.000000 1.975693 0.000919
												}
											}
										}
									}
								}
								JOINT mixamorig:RightHandRing1
								{
									OFFSET -9.103600 -0.043030 -1.865120
									CHANNELS 6 Xposition Yposition Zposition Xrotation Yrotation Zrotation
									JOINT mixamorig:RightHandRing2
									{
										OFFSET -3.153999 0.000000 0.000000
										CHANNELS 6 Xposition Yposition Zposition Xrotation Yrotation Zrotation
										JOINT mixamorig:RightHandRing3
										{
											OFFSET -2.937698 0.000000 0.000000
											CHANNELS 6 Xposition Yposition Zposition Xrotation Yrotation Zrotation
											JOINT mixamorig:RightHandRing4
											{
												OFFSET -2.647499 0.000000 0.000000
												CHANNELS 6 Xposition Yposition Zposition Xrotation Yrotation Zrotation
												End Site
												{
													OFFSET 0.000000 2.647507 0.001231
												}
											}
										}
									}
								}
								JOINT mixamorig:RightHandMiddle1
								{
									OFFSET -9.532501 0.000000 0.000000
									CHANNELS 6 Xposition Yposition Zposition Xrotation Yrotation Zrotation
									JOINT mixamorig:RightHandMiddle2
									{
										OFFSET -3.698196 0.000000 0.000000
										CHANNELS 6 Xposition Yposition Zposition Xrotation Yrotation Zrotation
										JOINT mixamorig:RightHandMiddle3
										{
											OFFSET -2.950897 0.000000 0.000000
											CHANNELS 6 Xposition Yposition Zposition Xrotation Yrotation Zrotation
											JOINT mixamorig:RightHandMiddle4
											{
												OFFSET -2.833900 0.000000 0.000000
												CHANNELS 6 Xposition Yposition Zposition Xrotation Yrotation Zrotation
												End Site
												{
													OFFSET 0.000000 2.833893 0.001318
												}
											}
										}
									}
								}
								JOINT mixamorig:RightHandIndex1
								{
									OFFSET -9.108299 -0.517853 2.259859
									CHANNELS 6 Xposition Yposition Zposition Xrotation Yrotation Zrotation
									JOINT mixamorig:RightHandIndex2
									{
										OFFSET -3.676399 0.000000 0.000000
										CHANNELS 6 Xposition Yposition Zposition Xrotation Yrotation Zrotation
										JOINT mixamorig:RightHandIndex3
										{
											OFFSET -2.883102 0.000000 0.000000
											CHANNELS 6 Xposition Yposition Zposition Xrotation Yrotation Zrotation
											JOINT mixamorig:RightHandIndex4
											{
												OFFSET -2.392700 0.000000 0.000000
												CHANNELS 6 Xposition Yposition Zposition Xrotation Yrotation Zrotation
												End Site
												{
													OFFSET 0.000000 2.392700 0.001113
												}
											}
										}
									}
								}
								JOINT mixamorig:RightHandThumb1
								{
									OFFSET -2.464798 -1.573944 2.681868
									CHANNELS 6 Xposition Yposition Zposition Xrotation Yrotation Zrotation
									JOINT mixamorig:RightHandThumb2
									{
										OFFSET -3.229782 -1.864716 1.864716
										CHANNELS 6 Xposition Yposition Zposition Xrotation Yrotation Zrotation
										JOINT mixamorig:RightHandThumb3
										{
											OFFSET -2.652542 -1.531448 1.531448
											CHANNELS 6 Xposition Yposition Zposition Xrotation Yrotation Zrotation
											JOINT mixamorig:RightHandThumb4
											{
												OFFSET -1.954605 -1.128494 1.128493
												CHANNELS 6 Xposition Yposition Zposition Xrotation Yrotation Zrotation
												End Site
												{
													OFFSET 0.000412 2.523392 0.000704
												}
											}
										}
									}
								}
							}
						}
					}
				}
			}
		}
	}
	JOINT mixamorig:LeftUpLeg
	{
		OFFSET 8.207800 -6.751701 -1.599600
		CHANNELS 6 Xposition Yposition Zposition Xrotation Yrotation Zrotation
		JOINT mixamorig:LeftLeg
		{
			OFFSET 0.000000 -44.370499 0.284600
			CHANNELS 6 Xposition Yposition Zposition Xrotation Yrotation Zrotation
			JOINT mixamorig:LeftFoot
			{
				OFFSET 0.000000 -44.427898 -2.982200
				CHANNELS 6 Xposition Yposition Zposition Xrotation Yrotation Zrotation
				JOINT mixamorig:LeftToeBase
				{
					OFFSET 0.000000 -8.728700 10.710600
					CHANNELS 6 Xposition Yposition Zposition Xrotation Yrotation Zrotation
					JOINT mixamorig:LeftToe_End
					{
						OFFSET 0.000000 -0.000700 9.278099
						CHANNELS 6 Xposition Yposition Zposition Xrotation Yrotation Zrotation
						End Site
						{
							OFFSET 0.000000 9.278100 0.000000
						}
					}
				}
			}
		}
	}
	JOINT mixamorig:RightUpLeg
	{
		OFFSET -8.207800 -6.751701 -1.599600
		CHANNELS 6 Xposition Yposition Zposition Xrotation Yrotation Zrotation
		JOINT mixamorig:RightLeg
		{
			OFFSET 0.000000 -44.370499 0.286200
			CHANNELS 6 Xposition Yposition Zposition Xrotation Yrotation Zrotation
			JOINT mixamorig:RightFoot
			{
				OFFSET 0.000000 -44.427700 -2.983800
				CHANNELS 6 Xposition Yposition Zposition Xrotation Yrotation Zrotation
				JOINT mixamorig:RightToeBase
				{
					OFFSET 0.000000 -8.728700 10.710600
					CHANNELS 6 Xposition Yposition Zposition Xrotation Yrotation Zrotation
					JOINT mixamorig:RightToe_End
					{
						OFFSET 0.000000 -0.000700 9.278100
						CHANNELS 6 Xposition Yposition Zposition Xrotation Yrotation Zrotation
						End Site
						{
							OFFSET 0.000000 9.278100 0.000000
						}
					}
				}
			}
		}
	}
}
MOTION
Frames: 3
Frame Time: 0.016667
-25.162590 97.853302 -3.292545 23.645557 16.109358 -14.217214 -0.000005 10.181599 0.131503 0.108050 -2.069062 5.390825 0.000001 10.083502 -1.000797 0.490111 -5.161677 7.887372 0.000002 9.100004 -1.373407 0.601084 -5.059562 7.961565 -0.000002 16.671701 -2.516197 -5.982104 1.190946 -0.406981 -0.000001 9.617875 1.685000 -1.520480 5.006489 0.796684 -0.000001 17.815216 2.585004 -0.000002 -0.000000 0.000000 3.067598 6.409515 9.283606 -0.000002 -0.000000 0.000000 -3.067600 6.409515 9.283501 -0.000002 -0.000000 0.000000 4.570397 10.946003 -2.627995 -1.030134 9.813519 -4.287390 10.592399 -0.524574 -2.232097 197.844366 -87.874789 178.750736 27.841507 0.000002 0.000004 -0.000019 -76.853398 -0.000014 28.328794 0.000011 -0.000006 20.950075 -30.450961 23.178396 2.466109 -1.576250 2.681686 -1.623347 8.802364 6.907270 3.229785 -1.864722 1.864718 -0.427769 22.610668 16.689262 2.652615 -1.531497 1.531490 -1.790058 8.948759 10.153301 1.954597 -1.128478 1.128495 -0.000000 0.000001 -0.000000 9.109300 -0.518128 2.259868 0.000002 -0.000000 -0.000001 3.676397 0.000012 0.000000 -0.000002 0.000001 -0.000021 2.883107 0.000001 0.000003 -0.000001 -0.000001 0.000001 2.392689 -0.000016 0.000003 0.000000 -0.000001 0.000001 9.533400 -0.000009 -0.000001 -0.000001 -0.001928 0.015985 3.698201 -0.000013 0.000002 -0.000002 0.001929 -0.015980 2.950900 0.000002 -0.000002 0.000001 -0.000001 0.000002 2.833907 0.000002 -0.000003 -0.000000 -0.000000 0.000000 9.104500 -0.043075 -1.865121 0.000003 -0.000000 0.000000 3.154003 -0.000036 0.000007 0.000002 0.000002 -0.000004 2.937694 0.000002 0.000001 -0.000001 -0.000000 -0.000001 2.647493 -0.000001 -0.000004 0.000000 0.000000 -0.000001 8.077785 -0.487007 -3.806328 -0.018087 4.054253 0.511071 3.599995 -0.000032 0.000000 -0.018085 -4.054253 -0.511071 2.114197 -0.000003 -0.000000 0.000001 0.000000 -0.000000 1.975700 0.000001 0.000003 -0.000000 0.000001 0.000000 -4.570006 10.946176 -2.627991 -0.521316 -9.859325 3.078385 -10.592792 -0.524778 -2.232102 24.583589 42.115278 56.401329 -27.841511 0.000003 -0.000007 -0.000008 7.339371 -0.000007 -28.328825 0.000004 -0.000008 -31.034665 -12.102299 -40.691924 -8.076696 -0.486732 -3.806228 -0.000003 0.000001 -0.000004 -3.600001 -0.000025 -0.000000 -0.000002 0.000001 0.000007 -2.114191 -0.000011 0.000011 0.000003 -0.000004 -0.000005 -1.975707 -0.000006 -0.000002 -0.000003 0.000001 -0.000001 -9.103605 -0.043046 -1.865120 -0.000002 0.000000 -0.000001 -3.153992 0.000008 0.000002 0.000003 -0.000000 0.000006 -2.937683 0.000002 0.000008 0.000001 0.000000 -0.000003 -2.647502 -0.000003 0.000000 0.000000 0.000000 0.000001 -9.532498 -0.000016 0.000003 -0.000001 -0.000000 0.000002 -3.698193 -0.000010 -0.000006 -0.000002 0.000002 0.000026 -2.950897 -0.000022 -0.000009 -0.000001 -0.000003 0.000006 -2.833895 -0.000012 -0.000008 0.000004 -0.000001 0.000001 -9.108310 -0.517869 2.259860 -0.000003 0.000000 0.000001 -3.676399 0.000001 0.000003 -0.000003 0.000001 0.000012 -2.883103 -0.000017 -0.000007 -0.000003 0.000003 0.000000 -2.392704 -0.000010 -0.000000 0.000001 0.000003 0.000004 -2.464791 -1.573971 2.681867 -1.898136 -6.986645 -7.116734 -3.229786 -1.864702 1.864712 6.574139 -31.362347 -1.578259 -2.652541 -1.531448 1.531460 -0.287487 -11.195938 -3.253740 -1.954596 -1.128511 1.128496 0.000001 -0.000000 0.000003 8.207797 -6.751704 -1.599597 -8.513013 6.665600 -10.542779 0.000002 -44.370499 0.284600 9.434457 9.724479 -5.240522 -0.000002 -44.427898 -2.982202 2.307291 20.797513 2.590445 -0.000005 -8.728699 10.710600 -32.930087 -0.000016 0.042771 0.000000 -0.000700 9.278102 0.000000 0.000002 -0.000000 -8.207804 -6.751695 -1.599596 -35.813885 2.987767 -1.347406 0.000002 -44.370495 0.286200 27.679504 -6.812645 0.178692 0.000003 -44.427704 -2.983801 -11.670922 -15.354591 10.451750 -0.000002 -8.728701 10.710600 -0.000003 -0.000003 0.000003 0.000000 -0.000700 9.278099 -0.000000 0.000000 -0.000000 
-25.064888 98.293961 -3.107578 22.772373 17.672831 -13.754965 0.000001 10.181602 0.131501 0.302821 -2.345668 4.913975 -0.000001 10.083495 -1.000800 0.924099 -5.600982 7.665204 -0.000000 9.100011 -1.373406 1.023882 -5.489058 7.747535 0.000001 16.671721 -2.516201 -6.603350 1.090287 -0.049692 0.000001 9.617921 1.685010 -1.199955 5.112829 0.386847 0.000002 17.815201 2.584997 0.000003 -0.000000 0.000000 3.067600 6.409500 9.283600 0.000003 -0.000000 0.000000 -3.067599 6.409484 9.283500 0.000003 -0.000000 0.000000 4.570401 10.946006 -2.627998 -0.916184 9.286377 -4.278229 10.592402 -0.524616 -2.232097 138.929681 -86.067316 114.747588 27.841501 -0.000000 -0.000000 0.000016 -71.159793 0.000007 28.328796 0.000015 0.000000 22.876942 -22.108327 36.102946 2.466097 -1.576201 2.681689 -1.623348 8.802362 6.907267 3.229789 -1.864722 1.864714 -0.427767 22.610670 16.689260 2.652626 -1.531480 1.531496 -1.790057 8.948761 10.153298 1.954605 -1.128479 1.128497 0.000001 0.000000 -0.000000 9.109292 -0.518097 2.259863 0.000001 -0.000001 0.000003 3.676410 -0.000003 0.000001 -0.000004 0.000000 -0.000023 2.883101 -0.000015 0.000001 0.000001 -0.000000 0.000001 2.392699 -0.000014 0.000002 0.000003 -0.000000 0.000001 9.533396 -0.000007 -0.000007 -0.000001 -0.001930 0.015984 3.698207 0.000003 0.000002 -0.000002 0.001929 -0.015982 2.950904 -0.000002 -0.000002 0.000001 -0.000003 -0.000002 2.833900 -0.000003 -0.000004 -0.000001 -0.000002 0.000000 9.104489 -0.043047 -1.865123 0.000001 -0.000002 0.000001 3.153987 -0.000022 -0.000007 0.000001 0.000000 -0.000004 2.937694 -0.000003 0.000005 -0.000001 0.000000 -0.000001 2.647499 -0.000002 -0.000003 0.000001 0.000000 -0.000003 8.077784 -0.486964 -3.806323 -0.018088 4.054251 0.511071 3.600015 -0.000018 0.000003 -0.018084 -4.054255 -0.511073 2.114199 0.000013 0.000001 -0.000003 -0.000000 -0.000001 1.975707 0.000013 -0.000002 0.000000 -0.000001 0.000000 -4.569998 10.946216 -2.628006 -0.627180 -11.597165 3.906371 -10.592794 -0.524798 -2.232102 21.763884 42.065236 55.770359 -27.841511 0.000000 -0.000004 -0.000000 9.203877 0.000002 -28.328800 0.000011 -0.000004 -35.374926 -8.215392 -42.607929 -8.076695 -0.486735 -3.806226 -0.000002 -0.000000 -0.000007 -3.599995 -0.000007 -0.000004 0.000000 -0.000001 0.000005 -2.114188 -0.000015 0.000001 0.000003 0.000001 -0.000001 -1.975715 0.000001 0.000005 -0.000002 -0.000000 -0.000000 -9.103601 -0.043046 -1.865119 -0.000000 -0.000001 -0.000002 -3.154000 -0.000006 -0.000005 0.000001 0.000001 0.000006 -2.937710 -0.000013 0.000001 0.000000 0.000000 -0.000002 -2.647491 -0.000013 0.000003 0.000000 0.000000 0.000003 -9.532499 -0.000001 -0.000001 -0.000000 -0.000002 -0.000001 -3.698204 -0.000026 -0.000003 -0.000000 0.000001 0.000024 -2.950892 -0.000039 0.000003 -0.000003 0.000001 0.000007 -2.833901 -0.000044 0.000002 -0.000003 0.000001 0.000003 -9.108298 -0.517854 2.259862 0.000001 -0.000002 -0.000000 -3.676397 -0.000013 -0.000001 0.000000 -0.000001 0.000008 -2.883100 -0.000000 -0.000001 -0.000001 -0.000001 -0.000001 -2.392693 0.000008 0.000002 0.000001 -0.000001 -0.000003 -2.464793 -1.573938 2.681867 -1.898131 -6.986648 -7.116737 -3.229787 -1.864715 1.864725 6.574145 -31.362350 -1.578257 -2.652542 -1.531436 1.531449 -0.287491 -11.195938 -3.253740 -1.954609 -1.128491 1.128491 -0.000003 0.000002 -0.000002 8.207803 -6.751705 -1.599598 -11.959294 7.876189 -8.905391 -0.000000 -44.370506 0.284598 18.198646 9.956671 -6.447147 0.000005 -44.427895 -2.982193 8.613354 19.384323 -3.218437 0.000006 -8.728701 10.710597 -39.633819 -0.202005 3.595319 0.000003 -0.000700 9.278104 -0.000000 -0.000001 0.000000 -8.207799 -6.751709 -1.599596 -33.866076 10.526257 1.405920 0.000001 -44.370499 0.286199 26.414911 -7.395117 -1.507731 -0.000004 -44.427700 -2.983802 -13.327086 -7.803491 10.237864 0.000001 -8.728699 10.710599 -0.000054 0.000007 0.000002 -0.000001 -0.000700 9.278101 0.000000 0.000002 0.000000 
-25.022783 98.584747 -2.874752 21.798523 19.263797 -13.230630 0.000001 10.181602 0.131502 0.495695 -2.625442 4.335652 -0.000001 10.083507 -1.000798 1.350564 -6.082501 7.391819 0.000002 9.100014 -1.373409 1.435279 -5.969058 7.480149 -0.000002 16.671715 -2.516199 -7.159743 0.997166 0.333955 -0.000002 9.617903 1.685002 -0.916952 5.294389 0.144048 -0.000001 17.815216 2.584997 -0.000000 -0.000000 -0.000000 3.067598 6.409500 9.283594 -0.000000 -0.000000 -0.000000 -3.067601 6.409500 9.283496 -0.000000 -0.000000 -0.000000 4.570398 10.945989 -2.627995 -0.772172 8.728336 -4.402637 10.592396 -0.524556 -2.232099 128.536155 -83.044657 99.066805 27.841499 -0.000005 -0.000002 -0.000012 -63.353365 -0.000013 28.328802 0.000011 0.000003 24.001546 -18.388970 47.633411 2.466101 -1.576201 2.681685 -1.623349 8.802364 6.907268 3.229785 -1.864710 1.864714 -0.427766 22.610674 16.689260 2.652617 -1.531497 1.531474 -1.790060 8.948763 10.153297 1.954610 -1.128478 1.128491 -0.000004 -0.000001 0.000001 9.109295 -0.518093 2.259868 -0.000003 0.000003 0.000001 3.676391 0.000017 -0.000005 -0.000005 0.000001 -0.000027 2.883106 -0.000000 -0.000009 -0.000003 -0.000000 0.000002 2.392703 -0.000000 0.000002 -0.000003 -0.000000 0.000002 9.533392 0.000026 -0.000004 -0.000005 -0.001926 0.015985 3.698207 -0.000022 0.000003 -0.000004 0.001926 -0.015982 2.950897 0.000001 0.000006 0.000000 -0.000003 0.000000 2.833893 0.000003 0.000002 -0.000000 -0.000003 0.000000 9.104494 -0.043059 -1.865127 -0.000003 0.000002 0.000002 3.153988 0.000001 0.000003 -0.000001 0.000003 -0.000002 2.937694 0.000014 0.000006 0.000001 -0.000000 0.000002 2.647499 0.000000 0.000006 -0.000001 0.000001 0.000000 8.077788 -0.486972 -3.806321 -0.018090 4.054256 0.511072 3.599999 0.000000 -0.000000 -0.018083 -4.054251 -0.511072 2.114185 0.000016 -0.000001 -0.000004 0.000000 -0.000001 1.975700 0.000011 0.000004 -0.000000 0.000001 0.000000 -4.570002 10.946195 -2.627996 -0.702642 -13.201647 4.742723 -10.592791 -0.524794 -2.232110 18.050812 41.797175 56.171527 -27.841496 0.000004 0.000008 0.000004 10.538149 -0.000005 -28.328798 0.000008 0.000006 -38.094636 -3.414041 -43.941319 -8.076695 -0.486735 -3.806220 -0.000001 -0.000001 -0.000007 -3.599999 -0.000027 0.000002 -0.000001 -0.000000 0.000009 -2.114201 -0.000030 0.000000 -0.000000 -0.000000 0.000002 -1.975704 -0.000002 0.000000 -0.000001 -0.000000 -0.000002 -9.103601 -0.043047 -1.865113 -0.000001 -0.000001 -0.000003 -3.154003 -0.000007 -0.000001 -0.000000 0.000001 0.000004 -2.937699 -0.000014 0.000002 -0.000001 -0.000001 -0.000003 -2.647497 -0.000001 0.000000 -0.000001 -0.000000 -0.000001 -9.532503 -0.000017 0.000008 -0.000001 -0.000001 -0.000002 -3.698199 0.000005 0.000004 0.000000 0.000001 0.000025 -2.950883 -0.000011 0.000005 0.000001 -0.000000 0.000004 -2.833896 -0.000031 0.000002 -0.000001 -0.000000 -0.000002 -9.108302 -0.517870 2.259867 -0.000001 -0.000001 -0.000002 -3.676391 -0.000017 0.000005 -0.000001 -0.000001 0.000006 -2.883094 0.000008 -0.000002 0.000001 -0.000001 -0.000000 -2.392686 0.000001 0.000001 -0.000000 -0.000001 -0.000006 -2.464800 -1.573955 2.681876 -1.898133 -6.986649 -7.116740 -3.229777 -1.864697 1.864717 6.574143 -31.362350 -1.578263 -2.652535 -1.531460 1.531453 -0.287487 -11.195933 -3.253739 -1.954610 -1.128508 1.128495 -0.000002 -0.000001 0.000002 8.207800 -6.751698 -1.599598 -15.588478 9.315461 -7.495120 0.000002 -44.370495 0.284602 27.480764 10.067256 -7.260791 0.000001 -44.427898 -2.982196 12.798594 16.726392 -3.783553 -0.000003 -8.728703 10.710595 -40.828016 -0.082299 2.087032 0.000001 -0.000700 9.278095 0.000000 -0.000002 0.000000 -8.207800 -6.751694 -1.599600 -32.378898 17.974269 4.210349 -0.000001 -44.370483 0.286202 25.968760 -7.537105 -3.184918 -0.000003 -44.427704 -2.983802 -15.632949 -1.532832 9.715899 0.000001 -8.728700 10.710602 -0.000021 -0.000003 -0.000002 -0.000001 -0.000700 9.278098 -0.000000 -0.000002 -0.000000 
